<?xml version="1.0" standalone="no"?>
<!DOCTYPE svg PUBLIC "-//W3C//DTD SVG 20010904//EN"
 "http://www.w3.org/TR/2001/REC-SVG-20010904/DTD/svg10.dtd">
<svg version="1.0" xmlns="http://www.w3.org/2000/svg"
 width="176.000000pt" height="176.000000pt" viewBox="0 0 176.000000 176.000000"
 preserveAspectRatio="xMidYMid meet">
<metadata>
Created by potrace 1.11, written by Peter Selinger 2001-2013
</metadata>
<g transform="translate(0.000000,176.000000) scale(0.100000,-0.100000)"
fill="#000000" stroke="none">
<path d="M747 1710 c-333 -60 -586 -284 -683 -605 -24 -80 -27 -106 -27 -230
0 -124 3 -150 27 -230 87 -287 294 -493 583 -582 78 -23 104 -26 233 -26 129
0 155 3 233 26 289 88 496 295 583 582 24 80 27 106 27 230 0 124 -3 150 -27
230 -109 361 -415 598 -786 610 -63 2 -137 0 -163 -5z m318 -101 c261 -63 458
-249 547 -514 20 -61 23 -89 23 -220 0 -131 -3 -159 -23 -220 -111 -330 -391
-536 -732 -536 -341 0 -621 206 -732 536 -20 61 -23 89 -23 220 0 131 3 159
23 220 85 252 264 430 510 505 132 40 267 43 407 9z"/>
<path d="M535 1385 c-46 -25 -65 -54 -65 -106 0 -37 5 -51 31 -77 27 -28 107
-62 144 -62 7 0 24 -9 39 -21 53 -41 20 -99 -57 -99 -29 0 -46 7 -68 29 -16
16 -29 36 -29 45 0 24 -17 28 -50 11 -35 -18 -36 -25 -14 -71 58 -122 278
-118 326 6 14 36 0 95 -29 125 -16 15 -55 34 -97 46 -90 27 -116 43 -116 73 0
24 34 46 71 46 31 0 77 -28 91 -55 l13 -25 33 21 33 20 -18 31 c-31 53 -66 72
-141 76 -47 2 -76 -2 -97 -13z"/>
<path d="M1090 1170 l0 -220 45 0 45 0 0 220 0 220 -45 0 -45 0 0 -220z"/>
<path d="M450 570 l0 -220 155 0 155 0 0 35 0 35 -115 0 -115 0 0 60 0 60 105
0 105 0 0 35 0 35 -105 0 -105 0 0 50 0 50 110 0 110 0 0 40 0 40 -150 0 -150
0 0 -220z"/>
<path d="M960 750 l0 -40 65 0 65 0 0 -180 0 -180 45 0 45 0 0 180 0 180 65 0
65 0 0 40 0 40 -175 0 -175 0 0 -40z"/>
</g>
</svg>
