<svg xmlns="http://www.w3.org/2000/svg" viewBox="0 0 24 24"><g id="icons"><path d="M21.35,15.07a4.1,4.1,0,0,0,0-4.43,1,1,0,0,0,.44-.31A1,1,0,0,0,22,9.48,10.15,10.15,0,0,0,12,2,10.13,10.13,0,0,0,2,9.48a1,1,0,0,0,.18.85,1,1,0,0,0,.44.31,4.1,4.1,0,0,0,0,4.43A1,1,0,0,0,2,16v2.73A3.27,3.27,0,0,0,5.27,22H18.73A3.28,3.28,0,0,0,22,18.73V16A1,1,0,0,0,21.35,15.07ZM12,4a8.31,8.31,0,0,1,7.62,4.71H4.39A8.28,8.28,0,0,1,12,4Zm8,14.73A1.27,1.27,0,0,1,18.73,20H5.27A1.27,1.27,0,0,1,4,18.73V17H20ZM17.85,15H6.14a2.15,2.15,0,0,1,0-4.29H17.85a2.15,2.15,0,1,1,0,4.29Z"/></g></svg>