<svg xmlns="http://www.w3.org/2000/svg" viewBox="0 0 24 24"><g id="icons"><path d="M22.25,16.39a2.59,2.59,0,0,0-2.91-.51l-1.79-1.79a2,2,0,0,0,0-.24,4.22,4.22,0,0,0-1.22-3.47l-.2-.2a6.43,6.43,0,0,1-1.69-3.47A6.72,6.72,0,1,0,3.1,12.63a6.65,6.65,0,0,0,3.56,1.86,6.76,6.76,0,0,1,3.62,1.82,4.47,4.47,0,0,0,3.15,1.31,3.56,3.56,0,0,0,.8-.08l1.7,1.69a2.57,2.57,0,1,0,4.83,1.53A2.58,2.58,0,0,0,23,18.21,2.58,2.58,0,0,0,22.25,16.39Zm-10.56-1.5A8.78,8.78,0,0,0,7,12.52,4.71,4.71,0,0,1,3.16,7.39,4.81,4.81,0,0,1,5.33,3.87a4.68,4.68,0,0,1,5,0,4.74,4.74,0,0,1,2.16,3.21,8.34,8.34,0,0,0,2.25,4.53l.2.2a2.26,2.26,0,0,1,.64,1.85,2.2,2.2,0,0,1-1,1.65A2.33,2.33,0,0,1,11.69,14.89Zm9.14,3.72a.51.51,0,0,1-.47.16,1.43,1.43,0,0,0-1.59,1.59.51.51,0,0,1-.16.47.57.57,0,0,1-.88-.71,1.67,1.67,0,0,0-.08-2l-1.51-1.52a3.19,3.19,0,0,0,.54-.56l1.47,1.47a1.69,1.69,0,0,0,2,.21.57.57,0,0,1,.71.88Z"/><circle cx="8.97" cy="6.36" r="0.71"/><circle cx="11.95" cy="10.55" r="0.71"/><circle cx="9.41" cy="9.14" r="0.71"/><circle cx="6.18" cy="6.03" r="0.71"/></g></svg>