<?xml version="1.0" encoding="UTF-8" standalone="no"?>
<!DOCTYPE svg PUBLIC "-//W3C//DTD SVG 1.1//EN" "http://www.w3.org/Graphics/SVG/1.1/DTD/svg11.dtd">
<svg width="100%" height="100%" viewBox="0 0 12 24" version="1.1" xmlns="http://www.w3.org/2000/svg" xmlns:xlink="http://www.w3.org/1999/xlink" xml:space="preserve" xmlns:serif="http://www.serif.com/" style="fill-rule:evenodd;clip-rule:evenodd;stroke-linecap:round;stroke-linejoin:round;stroke-miterlimit:1.5;">
    <g transform="matrix(1,0,0,1,-33.961,-0.455796)">
        <g transform="matrix(1,0,0,1,27.7543,-0.0142017)">
            <g transform="matrix(-1.07472,-1.0567e-16,1.35718e-16,-0.885895,54.9433,22.1986)">
                <path d="M44.511,20.366L35.418,20.366L36.801,3.68L43.128,3.68L44.511,20.366Z" style="fill:none;stroke:black;stroke-width:1.83px;"/>
            </g>
        </g>
        <g transform="matrix(1,0,0,1,27.7543,-0.0142017)">
            <g transform="matrix(1.24832,0,0,1,-37.6242,0.0829973)">
                <path d="M39.747,1.287L39.747,4.059" style="fill:none;stroke:black;stroke-width:1.59px;"/>
            </g>
        </g>
        <g transform="matrix(1,0,0,1,27.7543,-0.0142017)">
            <g transform="matrix(1.24832,0,0,1,-37.6242,0.0829973)">
                <path d="M39.747,19.951L39.747,22.571" style="fill:none;stroke:black;stroke-width:1.59px;"/>
            </g>
        </g>
    </g>
</svg>
