<svg xmlns="http://www.w3.org/2000/svg" viewBox="0 0 24 24"><g id="icons"><path d="M23,9.45H20.9C20.63,5.1,18.52,3,14.46,3H1a1,1,0,0,0-.7.29A1,1,0,0,0,0,4V16.52a1,1,0,0,0,1,1H3.17a2.92,2.92,0,0,0-.1.73,2.74,2.74,0,1,0,5.47,0,2.92,2.92,0,0,0-.1-.73h7.12a2.92,2.92,0,0,0-.1.73,2.74,2.74,0,1,0,5.47,0,2.92,2.92,0,0,0-.1-.73H23a1,1,0,0,0,1-1V10.45A1,1,0,0,0,23,9.45ZM2,5H13.46V9.26H2ZM5.8,19a.74.74,0,1,1,.74-.74A.74.74,0,0,1,5.8,19Zm12.4,0a.74.74,0,1,1,.73-.74A.74.74,0,0,1,18.2,19ZM22,15.52H2V11.26H14.46a1,1,0,0,0,1-1V5c1.91.22,3.47,1.31,3.47,5.41a1,1,0,0,0,1,1H22Z"/></g></svg>