<?xml version="1.0" encoding="UTF-8" standalone="no"?><!DOCTYPE svg PUBLIC "-//W3C//DTD SVG 1.1//EN" "http://www.w3.org/Graphics/SVG/1.1/DTD/svg11.dtd"><svg width="100%" height="100%" viewBox="0 0 6853 973" version="1.1" xmlns="http://www.w3.org/2000/svg" xmlns:xlink="http://www.w3.org/1999/xlink" xml:space="preserve" xmlns:serif="http://www.serif.com/" style="fill-rule:evenodd;clip-rule:evenodd;stroke-linejoin:round;stroke-miterlimit:2;"><g><circle cx="486.488" cy="486.488" r="486.488" style="fill:#d00130;"/><circle cx="1662.45" cy="486.488" r="486.488" style="fill:#0b0c0f;"/><circle cx="2838.41" cy="486.488" r="486.488" style="fill:#0b0c0f;"/><circle cx="4014.38" cy="486.488" r="486.488" style="fill:#0b0c0f;"/><circle cx="5190.34" cy="486.488" r="486.488" style="fill:#0b0c0f;"/><circle cx="6366.3" cy="486.488" r="486.488" style="fill:#0b0c0f;"/></g><path d="M486.488,759.488c-45.5,0 -84.875,-11.75 -118.125,-35.25c-33.25,-23.5 -58.75,-56.25 -76.5,-98.25c-17.75,-42 -26.625,-90 -26.625,-144c0,-53.5 9.375,-100.5 28.125,-141c18.75,-40.5 44.875,-71.875 78.375,-94.125c33.5,-22.25 71.75,-33.375 114.75,-33.375c44,0 82.75,11.125 116.25,33.375c33.5,22.25 59.375,53.625 77.625,94.125c18.25,40.5 27.375,87.5 27.375,141c0,54 -8.75,102 -26.25,144c-17.5,42 -43,74.75 -76.5,98.25c-33.5,23.5 -73,35.25 -118.5,35.25Zm0,-64.5c46.5,0 82.375,-18.5 107.625,-55.5c25.25,-37 37.875,-89.5 37.875,-157.5c0,-67 -12.875,-117.75 -38.625,-152.25c-25.75,-34.5 -61.375,-51.75 -106.875,-51.75c-43.5,0 -78.625,17.5 -105.375,52.5c-26.75,35 -40.125,85.5 -40.125,151.5c0,68 12.625,120.5 37.875,157.5c25.25,37 61.125,55.5 107.625,55.5Z" style="fill:#fff;fill-rule:nonzero;"/></svg>