<?xml version="1.0" encoding="UTF-8" standalone="no"?><!DOCTYPE svg PUBLIC "-//W3C//DTD SVG 1.1//EN" "http://www.w3.org/Graphics/SVG/1.1/DTD/svg11.dtd"><svg width="100%" height="100%" viewBox="0 0 6853 973" version="1.1" xmlns="http://www.w3.org/2000/svg" xmlns:xlink="http://www.w3.org/1999/xlink" xml:space="preserve" xmlns:serif="http://www.serif.com/" style="fill-rule:evenodd;clip-rule:evenodd;stroke-linejoin:round;stroke-miterlimit:2;"><g><circle cx="486.488" cy="486.488" r="486.488" style="fill:#d00130;"/><circle cx="1662.45" cy="486.488" r="486.488" style="fill:#d00130;"/><circle cx="2838.41" cy="486.488" r="486.488" style="fill:#d00130;"/><path d="M2826.41,536.738c26,-39 45,-71.25 57,-96.75c12,-25.5 18,-48.75 18,-69.75c0,-26 -7.375,-46.625 -22.125,-61.875c-14.75,-15.25 -34.625,-22.875 -59.625,-22.875c-46.5,0 -89,19.75 -127.5,59.25l-9,-75c19,-15 40.75,-27.25 65.25,-36.75c24.5,-9.5 50.75,-14.25 78.75,-14.25c46.5,0 82.5,13.5 108,40.5c25.5,27 38.25,61.5 38.25,103.5c0,33 -6.375,64.25 -19.125,93.75c-12.75,29.5 -34.375,67.25 -64.875,113.25l-79.5,120l183.75,0l0,64.5l-310.5,0l143.25,-217.5Z" style="fill:#fff;fill-rule:nonzero;"/></g><g><circle cx="4014.38" cy="486.488" r="486.488" style="fill:#0b0c0f;"/><circle cx="5190.34" cy="486.488" r="486.488" style="fill:#0b0c0f;"/><circle cx="6366.3" cy="486.488" r="486.488" style="fill:#0b0c0f;"/></g></svg>