<?xml version="1.0" encoding="UTF-8" standalone="no"?><!DOCTYPE svg PUBLIC "-//W3C//DTD SVG 1.1//EN" "http://www.w3.org/Graphics/SVG/1.1/DTD/svg11.dtd"><svg width="100%" height="100%" viewBox="0 0 6853 973" version="1.1" xmlns="http://www.w3.org/2000/svg" xmlns:xlink="http://www.w3.org/1999/xlink" xml:space="preserve" xmlns:serif="http://www.serif.com/" style="fill-rule:evenodd;clip-rule:evenodd;stroke-linejoin:round;stroke-miterlimit:2;"><g><circle cx="486.488" cy="486.488" r="486.488" style="fill:#fcc802;"/><circle cx="1662.45" cy="486.488" r="486.488" style="fill:#fcc802;"/><circle cx="2838.41" cy="486.488" r="486.488" style="fill:#fcc802;"/><circle cx="4014.38" cy="486.488" r="486.488" style="fill:#fcc802;"/></g><path d="M4069.28,476.888c51.6,16.8 77.4,51.6 77.4,104.4c0,25.2 -6.3,47.1 -18.9,65.7c-12.6,18.6 -29.8,32.9 -51.6,42.9c-21.8,10 -46.5,15 -74.1,15c-41.2,0 -81.2,-10.6 -120,-31.8l13.8,-52.8c18.8,10.8 36.5,19 53.1,24.6c16.6,5.6 34.5,8.4 53.7,8.4c25.6,0 45.9,-6.4 60.9,-19.2c15,-12.8 22.5,-29.8 22.5,-51c0,-24 -8.3,-42.8 -24.9,-56.4c-16.6,-13.6 -41.3,-20.4 -74.1,-20.4l-26.4,0l0,-51.6l26.4,0c26,0 46.5,-6.1 61.5,-18.3c15,-12.2 22.5,-28.9 22.5,-50.1c0,-22.4 -5.7,-39.1 -17.1,-50.1c-11.4,-11 -28.1,-16.5 -50.1,-16.5c-16,0 -31.2,3 -45.6,9c-14.4,6 -29.6,14.4 -45.6,25.2l-9.6,-58.2c32.4,-18.4 68.6,-27.6 108.6,-27.6c38.4,0 68.3,10.2 89.7,30.6c21.4,20.4 32.1,47.2 32.1,80.4c0,22.8 -5.6,42.7 -16.8,59.7c-11.2,17 -27,29.7 -47.4,38.1Z" style="fill:#fff;fill-rule:nonzero;"/><g><circle cx="5190.34" cy="486.488" r="486.488" style="fill:#0b0c0f;"/><circle cx="6366.3" cy="486.488" r="486.488" style="fill:#0b0c0f;"/></g></svg>