<?xml version="1.0" encoding="UTF-8" standalone="no"?><!DOCTYPE svg PUBLIC "-//W3C//DTD SVG 1.1//EN" "http://www.w3.org/Graphics/SVG/1.1/DTD/svg11.dtd"><svg width="100%" height="100%" viewBox="0 0 6853 973" version="1.1" xmlns="http://www.w3.org/2000/svg" xmlns:xlink="http://www.w3.org/1999/xlink" xml:space="preserve" xmlns:serif="http://www.serif.com/" style="fill-rule:evenodd;clip-rule:evenodd;stroke-linejoin:round;stroke-miterlimit:2;"><g><circle cx="486.488" cy="486.488" r="486.488" style="fill:#01d01a;"/><circle cx="1662.45" cy="486.488" r="486.488" style="fill:#01d01a;"/><circle cx="2838.41" cy="486.488" r="486.488" style="fill:#01d01a;"/><circle cx="4014.38" cy="486.488" r="486.488" style="fill:#01d01a;"/><circle cx="5190.34" cy="486.488" r="486.488" style="fill:#01d01a;"/><circle cx="6366.3" cy="486.488" r="486.488" style="fill:#01d01a;"/></g><path d="M6356.55,412.238c36.5,0 68,7.25 94.5,21.75c26.5,14.5 46.75,34.5 60.75,60c14,25.5 21,54.5 21,87c0,35 -8.125,65.5 -24.375,91.5c-16.25,26 -38.5,46.125 -66.75,60.375c-28.25,14.25 -60.125,21.375 -95.625,21.375c-27,0 -53.375,-3.5 -79.125,-10.5c-25.75,-7 -48.125,-16.75 -67.125,-29.25l17.25,-66c21.5,12 42,21.125 61.5,27.375c19.5,6.25 40.75,9.375 63.75,9.375c33.5,0 60.625,-9.5 81.375,-28.5c20.75,-19 31.125,-44.25 31.125,-75.75c0,-35 -11,-62.125 -33,-81.375c-22,-19.25 -51.5,-28.875 -88.5,-28.875c-31.5,0 -66.75,5 -105.75,15l32.25,-267l247.5,0l-3,67.5l-186,0l-15.75,129.75c19,-2.5 37,-3.75 54,-3.75Z" style="fill:#fff;fill-rule:nonzero;"/></svg>