<?xml version="1.0" encoding="UTF-8" standalone="no"?>
<!DOCTYPE svg PUBLIC "-//W3C//DTD SVG 1.1//EN" "http://www.w3.org/Graphics/SVG/1.1/DTD/svg11.dtd">
<svg width="100%" height="100%" viewBox="0 0 1645 234" version="1.1" xmlns="http://www.w3.org/2000/svg" xmlns:xlink="http://www.w3.org/1999/xlink" xml:space="preserve" xmlns:serif="http://www.serif.com/" style="fill-rule:evenodd;clip-rule:evenodd;stroke-linejoin:round;stroke-miterlimit:2;">
    <g transform="matrix(1,0,0,1,-23.1664,-303.243)">
        <g transform="matrix(1,0,0,1,5.50096,0)">
            <g transform="matrix(1.35857,0,0,1.35857,-54.4327,106.941)">
                <circle cx="139.011" cy="230.434" r="85.941" style="fill:rgb(11,12,15);"/>
            </g>
            <g transform="matrix(1.35857,0,0,1.35857,227.798,106.941)">
                <circle cx="139.011" cy="230.434" r="85.941" style="fill:rgb(11,12,15);"/>
            </g>
            <g transform="matrix(1.35857,0,0,1.35857,510.029,106.941)">
                <circle cx="139.011" cy="230.434" r="85.941" style="fill:rgb(11,12,15);"/>
            </g>
            <g transform="matrix(1.35857,0,0,1.35857,792.26,106.941)">
                <circle cx="139.011" cy="230.434" r="85.941" style="fill:rgb(11,12,15);"/>
            </g>
            <g transform="matrix(1.35857,0,0,1.35857,1074.49,106.941)">
                <circle cx="139.011" cy="230.434" r="85.941" style="fill:rgb(11,12,15);"/>
            </g>
            <g transform="matrix(1.35857,0,0,1.35857,1356.72,106.941)">
                <circle cx="139.011" cy="230.434" r="85.941" style="fill:rgb(11,12,15);"/>
            </g>
        </g>
    </g>
</svg>
